<svg id="build_circle-24px" xmlns="http://www.w3.org/2000/svg" width="24" height="24" viewBox="0 0 24 24">
  <g id="Group_6" data-name="Group 6">
    <rect id="Rectangle_13" data-name="Rectangle 13" width="24" height="24" fill="none"/>
  </g>
  <g id="Group_8" data-name="Group 8">
    <g id="Group_7" data-name="Group 7">
      <path id="Path_11" data-name="Path 11" d="M12,2A10,10,0,1,0,22,12,10,10,0,0,0,12,2Zm4.9,13.49-1.4,1.4a.5.5,0,0,1-.71,0l-3.41-3.41A3.459,3.459,0,0,1,7.17,8.57l2.35,2.35,1.41-1.41L8.58,7.17a3.459,3.459,0,0,1,4.91,4.21l3.41,3.41A.5.5,0,0,1,16.9,15.49Z" fill="#a7a7a7" fill-rule="evenodd"/>
    </g>
  </g>
</svg>
