<svg xmlns="http://www.w3.org/2000/svg" xmlns:xlink="http://www.w3.org/1999/xlink" width="236" height="187.526" viewBox="0 0 236 187.526">
  <defs>
    <clipPath id="clip-path">
      <rect id="Rectangle_15" data-name="Rectangle 15" width="236" height="187.526" fill="#fff"/>
    </clipPath>
  </defs>
  <g id="jumping-man" clip-path="url(#clip-path)">
    <g id="rectangle1" transform="translate(36.812 143.935)">
      <path id="Vector" d="M122.225,439.46H103.7a2.364,2.364,0,0,1-2.361-2.361V398.593a2.364,2.364,0,0,1,2.361-2.361h18.526a2.364,2.364,0,0,1,2.361,2.361V437.1a2.364,2.364,0,0,1-2.361,2.361Z" transform="translate(-101.338 -396.232)" fill="#2fe56c"/>
    </g>
    <g id="rectangle4" transform="translate(169.085 10.074)">
      <path id="Vector_3" d="M486.354,205H467.828a2.364,2.364,0,0,1-2.361-2.361V30.093a2.364,2.364,0,0,1,2.361-2.361h18.526a2.364,2.364,0,0,1,2.361,2.361V202.641A2.364,2.364,0,0,1,486.354,205Z" transform="translate(-465.467 -27.732)" fill="#e52f48"/>
    </g>
    <g id="right-leg" transform="translate(41.419 69.631)">
      <path id="Vector_4" d="M121.2,359.266h4.454l2.119-17.178H121.2Z" transform="translate(-118.592 -287.453)" fill="#a0616a"/>
      <path id="Vector_5" d="M132.571,391.28h-14v-5.408h8.589a5.407,5.407,0,0,1,5.408,5.407Z" transform="translate(-116.92 -315.333)" fill="#2f2e41"/>
      <path id="Vector_6" d="M130,196.5s2.18,21.069-3.269,35.6l-4,27.608h-6.9l.727-32.694-2.543-29.061S119.107,184.876,130,196.5Z" transform="translate(-114.021 -191.686)" fill="#2f2e41"/>
    </g>
    <g id="left-leg" transform="translate(21.789 73.356)">
      <path id="Vector_7" d="M68.816,326.794l3.6,2.626L84.253,316.8l-5.309-3.876Z" transform="translate(-65.607 -272.606)" fill="#a0616a"/>
      <path id="Vector_8" d="M71.286,359.356l-11.3-8.253,3.189-4.367,6.937,5.064a5.408,5.408,0,0,1,1.179,7.557Z" transform="translate(-59.981 -294.137)" fill="#2f2e41"/>
      <path id="Vector_9" d="M80.923,204.483l7.265,25.065L74.021,252.07l7.084,5.994L97.27,232.817,92.547,201.94Z" transform="translate(-68.921 -201.94)" fill="#2f2e41"/>
    </g>
    <g id="right-arm" transform="translate(49.352 27.268)">
      <path id="Vector_10" d="M185.239,194.394a3.653,3.653,0,0,0-3.808-4.108l-6.457-11.846-1.453,5.086,4.424,10.856a3.673,3.673,0,0,0,7.294.012Z" transform="translate(-159.84 -140.888)" fill="#a0616a"/>
      <path id="Vector_11" d="M142.563,75.075a6.36,6.36,0,0,1,6.007,6.016l1.153,21.9,7.628,20.706-4.359,3.633-14.167-24.7-2.9-20.3a6.359,6.359,0,0,1,6.639-7.249Z" transform="translate(-135.86 -75.066)" fill="#ccc"/>
    </g>
    <g id="head-body" transform="translate(30.471 0)">
      <path id="Vector_12" d="M128.386,22.936a8.922,8.922,0,1,0-8.922-8.922A8.922,8.922,0,0,0,128.386,22.936Z" transform="translate(-106.539 -3.242)" fill="#a0616a"/>
      <path id="Vector_13" d="M98.282,62s5.449-3.633,11.624,4.359l1.635,50.311s-4.722-6.539-14.53-.363-11.988-.727-11.988-.727S78.121,63.631,98.282,62Z" transform="translate(-83.883 -38.951)" fill="#ccc"/>
      <path id="Vector_14" d="M119.431,17.464a2.525,2.525,0,0,0,4.357-1.4,2.563,2.563,0,0,0,0-.5c-.1-.94-.641-1.794-.511-2.787a1.464,1.464,0,0,1,.267-.684c1.162-1.556,3.891.7,4.988-.713.672-.864-.118-2.224.4-3.19.681-1.274,2.7-.646,3.964-1.344,1.408-.777,1.324-2.937.4-4.251A6.687,6.687,0,0,0,128.22.018a13.6,13.6,0,0,0-5.727,1.118,11.446,11.446,0,0,0-5.412,3.752,9.161,9.161,0,0,0-.926,7.8A14.709,14.709,0,0,0,119.431,17.464Z" transform="translate(-104.14 0)" fill="#2f2e41"/>
    </g>
    <g id="bottom-line" transform="translate(0.001 186.506)">
      <path id="Vector_15" d="M235.57,514.291H.435a.432.432,0,0,1,0-.865H235.57a.432.432,0,0,1,0,.865Z" transform="translate(-0.003 -513.426)" fill="#3f3d56"/>
    </g>
    <g id="rectangle2" transform="translate(124.326 59.659)">
      <path id="Vector_3-2" data-name="Vector_3" d="M486.354,154.453H467.828a2.909,2.909,0,0,1-1.669-.495,1.5,1.5,0,0,1-.692-1.193V29.419a1.5,1.5,0,0,1,.692-1.193,2.909,2.909,0,0,1,1.669-.495h18.526a2.908,2.908,0,0,1,1.669.495,1.5,1.5,0,0,1,.692,1.193V152.765a1.5,1.5,0,0,1-.692,1.193A2.909,2.909,0,0,1,486.354,154.453Z" transform="translate(-465.467 -27.732)" fill="#dad1d1"/>
    </g>
    <g id="rectangle3" transform="translate(81.021 107.606)">
      <path id="Vector_3-3" data-name="Vector_3" d="M486.354,106.506H467.828a4.268,4.268,0,0,1-1.669-.308c-.442-.2-.692-.463-.692-.742V28.781c0-.278.25-.545.692-.742a4.267,4.267,0,0,1,1.669-.308h18.526a4.265,4.265,0,0,1,1.669.308c.443.2.692.463.692.742v76.676c0,.278-.25.545-.692.742A4.267,4.267,0,0,1,486.354,106.506Z" transform="translate(-465.467 -27.732)" fill="#dad1d1"/>
    </g>
  </g>
</svg>
