<svg xmlns="http://www.w3.org/2000/svg" xmlns:xlink="http://www.w3.org/1999/xlink" width="600" height="476" viewBox="0 0 812 645.216">
  <defs>
    <clipPath id="clip-path">
      <rect id="Rectangle_8" data-name="Rectangle 8" width="812" height="645.216" fill="#fff"/>
    </clipPath>
  </defs>
  <g id="jumping-man" clip-path="url(#clip-path)">
    <g id="rectangle1" transform="translate(126.658 495.233)">
      <path id="Vector" d="M173.2,544.965H109.462a8.134,8.134,0,0,1-8.124-8.124V404.356a8.133,8.133,0,0,1,8.124-8.124H173.2a8.133,8.133,0,0,1,8.124,8.124V536.841a8.133,8.133,0,0,1-8.124,8.124Z" transform="translate(-101.338 -396.232)" fill="#2fe56c"/>
    </g>
    <g id="rectangle4" transform="translate(581.767 34.66)">
      <path id="Vector_3" d="M537.334,637.662H473.591a8.133,8.133,0,0,1-8.124-8.124V35.856a8.133,8.133,0,0,1,8.124-8.124h63.743a8.134,8.134,0,0,1,8.124,8.124V629.538a8.134,8.134,0,0,1-8.124,8.124Z" transform="translate(-465.467 -27.732)" fill="#e52f48"/>
    </g>
    <g id="right-leg" transform="translate(142.51 239.579)">
      <path id="Vector_4" d="M121.2,401.192h15.323l7.289-59.1H121.2Z" transform="translate(-112.228 -154.107)" fill="#a0616a"/>
      <path id="Vector_5" d="M166.732,404.478l-48.157,0V385.874h29.552a18.605,18.605,0,0,1,18.607,18.605Z" transform="translate(-112.883 -143.167)" fill="#2f2e41"/>
      <path id="Vector_6" d="M169.015,208.252s7.5,72.492-11.249,122.486l-13.748,94.99H120.27l2.5-112.488-8.749-99.988S131.519,168.256,169.015,208.252Z" transform="translate(-114.021 -191.686)" fill="#2f2e41"/>
    </g>
    <g id="left-leg" transform="translate(74.968 252.396)">
      <path id="Vector_7" d="M68.816,360.656l12.375,9.035,40.739-43.436L103.664,312.92Z" transform="translate(-57.774 -174.211)" fill="#a0616a"/>
      <path id="Vector_8" d="M98.877,390.159l-38.9-28.4,10.971-15.027L94.82,364.159a18.607,18.607,0,0,1,4.057,26Z" transform="translate(-59.981 -165.762)" fill="#2f2e41"/>
      <path id="Vector_9" d="M97.768,210.689l25,86.24L74.021,374.42l24.372,20.623,55.619-86.865L137.764,201.94Z" transform="translate(-56.473 -201.94)" fill="#2f2e41"/>
    </g>
    <g id="right-arm" transform="translate(169.806 93.821)">
      <path id="Vector_10" d="M213.839,233.331a12.568,12.568,0,0,0-13.1-14.133L178.52,178.44l-5,17.5,15.222,37.353a12.636,12.636,0,0,0,25.1.04Z" transform="translate(-126.45 -49.237)" fill="#a0616a"/>
      <path id="Vector_11" d="M158.921,75.1A21.881,21.881,0,0,1,179.59,95.8l3.966,75.352L209.8,242.391l-15,12.5L146.06,169.9l-9.98-69.858A21.88,21.88,0,0,1,158.921,75.1Z" transform="translate(-135.86 -75.066)" fill="#ccc"/>
    </g>
    <g id="head-body" transform="translate(104.841 0)">
      <path id="Vector_12" d="M150.162,66.488a30.7,30.7,0,1,0-30.7-30.7A30.7,30.7,0,0,0,150.162,66.488Z" transform="translate(-74.992 1.272)" fill="#a0616a"/>
      <path id="Vector_13" d="M133.425,64.007s18.748-12.5,40,15l5.624,173.1s-16.248-22.5-49.994-1.25-41.245-2.5-41.245-2.5S64.058,69.631,133.425,64.007Z" transform="translate(-83.883 15.284)" fill="#ccc"/>
      <path id="Vector_14" d="M128.547,60.089c5.018,5.346,14.338,2.476,14.992-4.827a8.821,8.821,0,0,0-.011-1.7c-.337-3.235-2.206-6.172-1.759-9.588a5.036,5.036,0,0,1,.92-2.354c4-5.355,13.387,2.4,17.162-2.453,2.313-2.973-.406-7.653,1.37-10.975,2.343-4.385,9.286-2.222,13.64-4.623,4.844-2.672,4.554-10.1,1.366-14.625-3.89-5.513-10.708-8.455-17.44-8.879s-13.421,1.4-19.706,3.846c-7.143,2.783-14.225,6.63-18.62,12.91-5.346,7.637-5.859,17.905-3.187,26.836C118.9,49.087,124.449,55.723,128.547,60.089Z" transform="translate(-75.934 0)" fill="#2f2e41"/>
    </g>
    <g id="bottom-line" transform="translate(0.004 641.708)">
      <path id="Vector_15" d="M810.512,516.4H1.487a1.488,1.488,0,0,1,0-2.976H810.512a1.488,1.488,0,0,1,0,2.976Z" transform="translate(-0.003 -513.426)" fill="#3f3d56"/>
    </g>
    <g id="rectangle2" transform="translate(427.767 205.266)">
      <path id="Vector_3-2" data-name="Vector_3" d="M537.334,463.738H473.591a10.01,10.01,0,0,1-5.742-1.7,5.147,5.147,0,0,1-2.382-4.1V33.539a5.146,5.146,0,0,1,2.382-4.1,10.008,10.008,0,0,1,5.742-1.7h63.743a10,10,0,0,1,5.742,1.7,5.143,5.143,0,0,1,2.382,4.1V457.93a5.144,5.144,0,0,1-2.382,4.1A10.007,10.007,0,0,1,537.334,463.738Z" transform="translate(-465.467 -27.732)" fill="#dad1d1"/>
    </g>
    <g id="rectangle3" transform="translate(278.767 370.236)">
      <path id="Vector_3-3" data-name="Vector_3" d="M537.334,298.768H473.591a14.687,14.687,0,0,1-5.742-1.059c-1.522-.677-2.38-1.595-2.382-2.552V31.342c0-.957.86-1.875,2.382-2.552a14.681,14.681,0,0,1,5.742-1.059h63.743a14.676,14.676,0,0,1,5.742,1.059c1.524.677,2.38,1.594,2.382,2.552V295.158c0,.957-.859,1.874-2.382,2.552A14.681,14.681,0,0,1,537.334,298.768Z" transform="translate(-465.467 -27.732)" fill="#dad1d1"/>
    </g>
  </g>
</svg>
