<svg id="sports_handball-24px" xmlns="http://www.w3.org/2000/svg" width="24" height="24" viewBox="0 0 24 24">
  <g id="Group_3" data-name="Group 3">
    <rect id="Rectangle_11" data-name="Rectangle 11" width="24" height="24" fill="none"/>
  </g>
  <g id="Group_5" data-name="Group 5">
    <g id="Group_4" data-name="Group 4">
      <path id="Path_7" data-name="Path 7" d="M14.27,6A2,2,0,1,0,17,5.27,2.006,2.006,0,0,0,14.27,6Z" fill="#a7a7a7"/>
      <path id="Path_8" data-name="Path 8" d="M15.84,10.41l-2.6-1.5a5,5,0,0,1-1.82-6.82l-1.73-1a7.016,7.016,0,0,0,.97,8.31L5.51,18.32l1.73,1,1.5-2.6,1.73,1-3,5.2,1.73,1,6.29-10.89a5,5,0,0,1,.31,5.46l1.73,1A7.105,7.105,0,0,0,15.84,10.41Z" fill="#a7a7a7"/>
      <path id="Path_9" data-name="Path 9" d="M12.75,3.8a1.5,1.5,0,1,0-.55-2.05A1.5,1.5,0,0,0,12.75,3.8Z" fill="#a7a7a7"/>
    </g>
  </g>
</svg>
