<?xml version="1.0" standalone="no"?>
<!DOCTYPE svg PUBLIC "-//W3C//DTD SVG 20010904//EN"
 "http://www.w3.org/TR/2001/REC-SVG-20010904/DTD/svg10.dtd">
<svg version="1.0" xmlns="http://www.w3.org/2000/svg"
 width="200.000000pt" height="200.000000pt" viewBox="0 0 200.000000 200.000000"
 preserveAspectRatio="xMidYMid meet">
<metadata>
Created by potrace 1.11, written by Peter Selinger 2001-2013
</metadata>
<g transform="translate(0.000000,200.000000) scale(0.100000,-0.100000)"
fill="#000000" stroke="none">
<path d="M728 1988 c-2 -7 -3 -131 -3 -275 0 -173 -3 -264 -10 -266 -5 -2
-130 -3 -277 -2 l-268 0 0 -277 0 -278 191 -307 c106 -170 206 -330 224 -358
18 -27 56 -89 86 -137 l54 -88 553 0 552 0 -1 563 0 562 -273 435 -272 435
-276 3 c-215 2 -277 0 -280 -10z"/>
</g>
</svg>
